<svg width="53" height="36" viewBox="0 0 53 36" fill="none" xmlns="http://www.w3.org/2000/svg">
<path fill-rule="evenodd" clip-rule="evenodd" d="M29.618 2.95213C29.4706 3.10229 28.9522 3.86902 28.9522 4.81889C28.9522 5.0463 28.9564 10.4915 28.9522 10.6868C28.9443 11.1011 28.6854 11.6913 28.472 11.8994C28.3217 12.0464 27.3983 12.8675 27.3164 12.9537L27.8401 12.9618C28.0105 12.8024 29.7893 11.2605 29.9754 11.0531C30.2174 10.784 30.7944 10.1023 30.7944 9.03183L30.7973 3.39365C30.7973 2.54764 31.2006 2.07835 31.408 1.8518C31.6213 1.61918 32.3223 1.04747 32.4465 0.918135L31.8971 0.902222C31.7642 1.03213 29.8008 2.76493 29.618 2.95213ZM25.2139 24.2894L27.3921 26.1501H28.8508C30.3337 26.1501 31.6894 25.5294 32.5838 24.6551C33.4788 23.7796 33.8084 22.604 33.8084 21.5043V18.4542C33.8084 17.4291 33.1495 16.8327 32.967 16.6539C32.867 16.5567 32.2326 15.9717 32.2326 15.9717V18.3118C32.2326 18.3118 32.9318 19.0178 33.0699 19.161C33.7161 19.8322 33.709 21.0544 31.6634 23.0045C31.305 23.3456 30.2828 24.2894 28.8762 24.2894H25.2139Z" fill="#E23646"/>
<path fill-rule="evenodd" clip-rule="evenodd" d="M31.273 11.7713C31.0303 12.0225 30.7975 12.6367 30.7975 13.1781V14.3331H31.9955C32.4606 14.3331 33.0754 13.9185 33.2086 13.6992C33.2166 13.683 33.2086 12.5537 33.2086 12.5537C33.2086 12.5537 33.516 12.9842 33.8483 13.2116C33.9731 13.0574 35.0634 11.7644 35.9765 11.7572C37.5008 11.745 37.1564 13.626 36.5336 14.2278C36.3318 14.4213 35.4315 15.2291 35.1531 15.4881C34.4329 16.1585 33.2003 15.8376 33.2003 14.1054C33.2003 14.1054 31.8774 15.3336 31.6792 15.4962C31.4798 15.6588 30.7975 16.3656 30.7975 16.3656V19.4088C30.7975 20.8682 30.3063 21.3577 29.8995 21.7966C29.7412 21.9671 28.0607 23.4664 27.8358 23.629L27.2869 23.6411C27.2869 23.6411 28.2704 22.7668 28.4675 22.5666C28.6918 22.3388 28.953 21.8765 28.953 21.1069C28.953 20.9119 28.9282 16.3248 28.9282 16.3248H21.2833C18.6243 16.3248 18.0559 13.439 18.0394 12.6671C18.0352 12.4397 18.0394 10.1349 18.0394 9.77728C18.0394 9.30307 17.729 8.50278 17.2334 8.25598H17.9834C18.0698 8.29157 18.5412 8.47732 18.5412 10.2466C18.5412 10.2466 18.5092 12.3055 18.5092 12.4151C18.5092 13.312 19.2385 14.3412 20.2925 14.3412L28.9453 14.3331C28.9533 14.1054 29.1856 13.2423 29.6013 12.786C29.8377 12.5288 31.6931 10.8683 31.9053 10.7086L32.4547 10.7026C32.371 10.7772 31.4736 11.5645 31.273 11.7713ZM34.114 13.5044C34.114 13.5044 34.6149 14.1546 34.8536 14.3415C35.7857 15.0726 36.228 14.2874 35.6025 13.4474C35.3552 13.1164 34.3965 13.2119 34.114 13.5044Z" fill="#E23646"/>
<path fill-rule="evenodd" clip-rule="evenodd" d="M24.8362 18.9555C24.8362 19.364 23.5015 20.4484 23.4234 20.5248C23.3269 20.0847 22.9902 19.5987 21.9955 18.6253L23.4559 17.1972C24.4344 18.1555 24.8362 18.3594 24.8362 18.9555ZM27.3688 2.58516C27.6618 2.8716 28.2923 3.64874 27.9139 4.01937C27.5798 4.34631 27.0614 4.86479 27.0614 4.86479C27.0354 4.67789 26.5502 4.22798 26.5502 4.22798C26.5502 4.22798 26.5543 5.60721 26.5502 5.77792C26.5336 6.40056 26.2939 6.57821 26.2939 6.57821C26.2939 6.57821 27.4706 7.7199 27.4706 9.18652C27.4706 9.89769 27.4736 10.5519 27.4736 10.6931C27.4736 10.9937 27.3961 11.2263 27.1819 11.4569C27.0762 11.5715 25.9853 12.6432 25.8194 12.7893C25.5034 13.0676 25.1711 13.1142 24.922 13.1142H20.8658C20.227 13.1142 19.5696 12.6267 19.5696 12.1391C19.5696 12.0173 19.5779 10.6682 19.5779 10.6682C19.7859 10.904 19.9974 11.1794 20.5087 11.1722C20.9078 11.1661 21.3274 10.8594 21.4395 10.7498C21.5558 10.6349 24.5077 7.61719 24.5077 7.61719C24.5077 7.61719 23.1251 6.36381 22.2144 5.76837C21.77 5.47702 21.1797 5.84476 21.0907 6.22754C20.8114 7.42797 21.0907 9.22876 21.0907 9.22876L19.9708 8.13625C19.5202 7.69444 19.5364 6.6951 20.0738 6.16967C20.159 6.08606 20.9774 5.18132 22.0171 5.18132H23.6364C24.7228 5.18132 25.9111 6.23969 25.9111 6.23969C25.9111 6.23969 26.0856 6.05278 26.0856 5.87195C26.0856 5.32743 26.0649 3.85879 26.0649 3.85879C25.2474 3.05966 25.1362 2.23478 25.5279 1.85171C26.2593 1.13677 26.525 0.884766 26.525 0.884766C26.525 0.884766 26.5161 1.75218 27.3688 2.58516ZM22.2801 10.5545C21.8804 10.9639 21.8108 11.0663 21.4368 11.2856H26.0049C27.2428 11.2856 26.9966 10.5339 26.7747 10.1552C26.3194 9.37806 24.882 7.93401 24.882 7.93401C24.882 7.93401 22.3632 10.468 22.2801 10.5545Z" fill="#E23646"/>
<path fill-rule="evenodd" clip-rule="evenodd" d="M17.071 14.6205H16.3213C16.3213 14.6205 17.127 15.0533 17.127 16.1696V19.7347C17.127 22.0548 19.0839 24.1999 21.4615 24.1999H23.4474C24.6398 24.1999 25.0582 23.9175 25.7789 23.292C26.0432 23.0623 26.3867 22.6853 26.5124 22.5484C26.9281 22.0936 27.3702 21.7259 27.3702 20.5312V19.3643C27.3702 18.3557 26.7731 17.9359 26.4843 17.6538C26.2994 17.473 25.7914 16.9982 25.7914 16.9982V19.3884C25.7914 19.3884 26.292 19.9097 26.5124 20.0793C27.5435 20.8755 26.7228 22.2579 25.7665 22.2579C25.5754 22.2579 21.671 22.2591 21.405 22.2657C19.799 22.3048 17.6282 20.9039 17.6282 18.5484V16.6114C17.6285 14.6205 17.071 14.6205 17.071 14.6205Z" fill="#E23646"/>
<path fill-rule="evenodd" clip-rule="evenodd" d="M21.8509 18.9616C21.8509 19.3687 20.5162 20.4546 20.4387 20.531C20.3431 20.0909 20.0056 19.6048 19.0102 18.6315L20.4707 17.2034C21.4503 18.1611 21.8509 18.3642 21.8509 18.9616ZM6.58111 34.8169C6.34323 34.8169 4.50762 34.814 4.24517 34.814C3.50845 34.814 3.56466 34.216 3.50016 33.7047V30.4269C3.50016 30.4269 4.01143 30.4148 4.59076 30.4148C5.23813 30.4148 6.0441 30.3213 6.82816 30.7553C6.82816 30.7553 6.26423 29.4256 4.58661 29.4256H3.50016V28.3753C3.50016 28.3753 3.50016 27.4601 3.27175 27.1899C3.27175 27.1899 4.7165 27.1951 4.81503 27.1951C6.15091 27.196 7.18351 27.176 8.25724 27.8756C8.25724 27.8756 8.05161 26.1469 5.47158 26.1469H0.431641C0.431641 26.1469 1.30654 26.8792 1.28228 28.3701L1.30654 34.343C1.30654 35.8423 1.92019 35.8837 1.92019 35.8837H6.88734C8.01314 35.8837 8.40488 35.0964 8.40488 34.67L8.42175 34.0974C8.42175 34.0968 8.06433 34.8169 6.58111 34.8169ZM19.8038 34.312V30.1344C19.8038 28.5133 18.4493 28.0825 17.4406 28.0825C16.105 28.0825 15.7053 29.1735 15.5349 29.5482C15.2369 28.5312 14.196 28.0706 13.3422 28.0706C11.729 28.0706 11.3198 29.5725 11.3198 29.5725C11.3198 29.5725 11.2817 28.1221 9.98633 28.1221L8.71703 28.125C8.71703 28.125 9.45228 28.4207 9.45228 29.6741L9.45021 34.3129C9.45021 35.8446 10.0819 35.8713 10.0819 35.8713H12.1737C12.1196 35.8446 11.3707 35.2923 11.3707 34.2999V30.185C11.3965 30.0022 11.7125 29.3807 12.6149 29.3807C13.1262 29.3807 13.688 29.9018 13.6753 30.4877L13.6735 34.3109C13.6735 35.8649 14.2966 35.8692 14.2966 35.8692H16.3968C16.3968 35.8692 15.5938 35.3166 15.5938 34.2979L15.5875 30.1819C15.6662 29.9524 15.9426 29.3934 16.7352 29.3934C17.3666 29.3934 17.8954 29.9145 17.8829 30.5007C17.8829 30.5007 17.8788 33.9906 17.8809 34.3147C17.8903 35.8788 18.5043 35.8646 18.5043 35.8646C19.5978 35.8646 20.6044 35.8689 20.6044 35.8689C20.6044 35.8689 19.8038 35.3279 19.8038 34.312ZM23.4735 34.3103C23.4735 35.34 24.2795 35.8695 24.2795 35.8695C24.2795 35.8695 23.2806 35.8652 22.1876 35.8652C22.1876 35.8652 21.5459 35.8744 21.5459 34.3222V34.3152L21.548 29.6634C21.548 28.4366 20.821 28.1215 20.821 28.1215H22.0903C22.538 28.1215 23.4697 28.1215 23.4697 29.8564L23.4664 34.3031L23.4735 34.3103ZM29.9188 28.706C29.9188 28.706 29.7171 28.1484 28.8481 28.1484C27.5341 28.1484 27.214 29.6752 27.214 29.6752C27.1071 28.4684 26.7764 28.1117 25.8491 28.1117L24.5798 28.1149C24.5798 28.1149 25.3153 28.4097 25.3153 29.6631L25.313 34.308C25.313 35.8409 25.9444 35.866 25.9444 35.866H28.0362C27.9823 35.8409 27.2335 35.2883 27.2335 34.2956L27.2359 30.4926C27.2909 30.1477 27.4729 29.8824 27.7489 29.7076C28.4383 29.271 29.3798 29.3746 29.9188 30.0184V28.706ZM39.681 28.9866C40.3896 28.9866 40.9183 29.2893 40.9183 29.2893L40.9245 28.1204H39.1649L39.1661 26.3479C39.1661 26.3479 38.704 27.13 37.7578 27.8898C37.1637 28.3669 35.9159 28.9563 35.9159 28.9563L37.2444 28.9797L37.2421 34.3702C37.2421 35.8652 37.8811 35.8652 37.8811 35.8652C39.0288 35.8652 39.9706 35.8695 39.9706 35.8695C39.9706 35.8695 39.1629 35.34 39.1629 34.3569L39.1646 28.9837C39.7162 28.9855 39.3366 28.9866 39.681 28.9866ZM46.0423 31.327C44.8685 32.5275 43.9475 32.3394 43.2096 33.219C43.2096 33.2201 43.3279 34.4116 44.2602 34.832C44.5786 34.9764 45.8707 35.4323 46.708 34.0195L46.7021 35.2697C46.7021 35.2697 46.1648 35.8799 44.4593 35.8799C42.4039 35.8799 40.9961 34.2996 40.9961 32.1563C40.9961 30.0488 42.1438 28.0923 44.3108 28.0813C46.4346 28.0706 47.5847 29.7487 46.0423 31.327ZM44.7576 30.8352C45.1049 30.2076 45.3783 28.6137 44.1913 28.7011C42.816 28.802 43.0776 32.3782 43.0776 32.3782C43.5377 31.8895 44.2277 31.79 44.7576 30.8352ZM22.5013 27.4946C23.0403 27.4946 23.4776 27.0762 23.4776 26.5603C23.4776 26.0444 23.0403 25.6258 22.5013 25.6258C21.9622 25.6258 21.5249 26.0444 21.5249 26.5603C21.5249 27.0762 21.9622 27.4946 22.5013 27.4946ZM32.0986 34.9905C31.6213 34.9905 31.2802 34.505 31.2802 34.0074C31.2802 32.0735 32.8995 31.8064 33.3324 31.2903L33.3359 34.551C33.1445 34.7171 32.9504 34.9905 32.0986 34.9905ZM33.3324 30.5438C32.8456 31.3777 29.0596 31.5544 29.6401 34.4179C29.8694 35.5536 30.6434 35.8846 31.6166 35.8846C32.5619 35.8846 33.13 35.402 33.3682 34.9529C33.5093 35.8151 33.9546 35.8649 33.9546 35.8649C35.0484 35.8649 36.047 35.8692 36.047 35.8692C36.047 35.8692 35.2322 35.3398 35.2322 34.3181V29.9649C35.2322 28.9236 34.0516 28.1132 32.7965 28.1132C31.5905 28.1132 30.8322 28.6811 30.8322 28.6811V30.032C30.8322 30.032 31.2627 28.9618 32.3539 28.9618C33.4191 28.9618 33.4975 29.4805 33.4912 29.7395C33.4912 29.7395 33.5989 30.0899 33.3324 30.5438ZM50.6739 33.7655C50.6854 34.3132 50.1845 35.0325 49.1188 35.0325C48.0276 35.0325 47.5921 33.9405 47.5921 33.9405V35.3241C47.5921 35.3241 48.3791 35.8727 49.5851 35.8727C51.0165 35.8727 52.4636 34.8088 52.4311 33.328C52.4207 32.807 52.2305 32.3631 51.9399 31.9803C51.4556 31.3455 50.5739 30.9017 49.8913 30.4912C49.5019 30.2565 49.2948 29.8373 49.2904 29.6897C49.2788 29.4305 49.4073 28.9068 50.4733 28.9068C51.513 28.9068 51.9556 29.977 51.9556 29.977L51.9515 28.6811C51.9515 28.6811 51.1559 28.0634 49.9496 28.0634C48.6945 28.0634 47.5554 28.8741 47.5767 29.9148C47.5962 30.8291 47.9903 31.4214 48.7548 31.9792C49.0569 32.1994 49.4176 32.4138 49.8348 32.6403C50.444 32.9704 50.6659 33.3746 50.6739 33.7655Z" fill="#E23646"/>
</svg>
